<svg xmlns="http://www.w3.org/2000/svg" viewBox="0 0 512 512">
  <rect width="512" height="512" rx="96" fill="#123A2E"/>
  <rect x="40" y="40" width="432" height="432" rx="72" fill="none" stroke="#C8A24B" stroke-width="10"/>
  <g fill="#C8A24B">
    <path d="M256 150c-8 0-14 6-14 14v180h28V164c0-8-6-14-14-14z"/>
    <path d="M256 150c-46-34-104-30-150 6 44-6 86 6 122 36 10-18 18-30 28-42z"/>
    <path d="M256 150c46-34 104-30 150 6-44-6-86 6-122 36-10-18-18-30-28-42z"/>
    <path d="M256 150c-30-44-30-96-4-144-8 46 6 92 36 128-12 4-22 10-32 16z"/>
    <path d="M256 150c30-44 30-96 4-144 8 46-6 92-36 128 12 4 22 10 32 16z"/>
  </g>
  <rect x="196" y="356" width="120" height="20" rx="10" fill="#E7D9AE"/>
</svg>
